<?xml version="1.0" encoding="UTF-8" standalone="no"?>
<svg
   t="1779954025027"
   class="icon"
   viewBox="0 0 1024 1024"
   version="1.1"
   p-id="10758"
   width="200"
   height="200"
   id="svg3"
   sodipodi:docname="h_open.svg"
   inkscape:version="1.4.4 (dcaf3e7, 2026-05-05)"
   xml:space="preserve"
   xmlns:inkscape="http://www.inkscape.org/namespaces/inkscape"
   xmlns:sodipodi="http://sodipodi.sourceforge.net/DTD/sodipodi-0.dtd"
   xmlns="http://www.w3.org/2000/svg"
   xmlns:svg="http://www.w3.org/2000/svg"><defs
     id="defs3" /><sodipodi:namedview
     id="namedview3"
     pagecolor="#ffffff"
     bordercolor="#000000"
     borderopacity="0.25"
     inkscape:showpageshadow="2"
     inkscape:pageopacity="0.0"
     inkscape:pagecheckerboard="0"
     inkscape:deskcolor="#d1d1d1"
     showguides="true"
     inkscape:zoom="0.183125"
     inkscape:cx="-243.00341"
     inkscape:cy="524.23208"
     inkscape:window-width="1440"
     inkscape:window-height="830"
     inkscape:window-x="1913"
     inkscape:window-y="-6"
     inkscape:window-maximized="1"
     inkscape:current-layer="svg3" /><g
     id="g5"
     inkscape:label="open"
     style="display:inline"><path
       d="M 918.673,883 H 104.327 C 82.578,883 65,867.368 65,848.027 V 276.973 C 65,257.632 82.578,242 104.327,242 H 918.673 C 940.422,242 958,257.632 958,276.973 V 848.027 C 958,867.28 940.323,883 918.673,883 Z"
       fill="#ffe9b4"
       p-id="10759"
       id="path1"
       style="fill:#ffb02c;fill-opacity:1;stroke-width:0.9984;stroke-dasharray:none" /><path
       d="M 512,839.12287 H 65 V 280.59999 C 65,219.98733 82.598,171 104.371,171 h 305.92 c 17.4,0 32.71,31.5521 37.681,78.04789 z"
       fill="#ffb02c"
       p-id="10760"
       id="path2"
       style="stroke-width:1.66849" /><path
       d="M 512.78167,410.93969 H 65.781672 v -200.63 c 0,-21.773 17.598,-39.37 39.370998,-39.37 h 305.92 c 17.4,0 32.71,11.334 37.681,28.036 z"
       fill="#ffb02c"
       p-id="10760"
       id="path2-6-2"
       style="display:inline" /><path
       d="M 897.2192,883.99495 H 123.83321 c -21.749,0 -39.326999,-17.58 -39.326999,-39.332 v -508.336 c 0,-21.752 17.577999,-39.332 39.326999,-39.332 H 897.2192 c 21.749,0 39.3269,17.58 39.3269,39.332 v 508.336 c 0,21.652 -17.677,39.332 -39.3269,39.332 z"
       fill="#ffca28"
       p-id="10761"
       id="path3-9"
       style="fill:#ffffff;fill-opacity:1"
       sodipodi:nodetypes="sssssssss" /><path
       d="M 918.673,883 H 124.807 C 103.058,883 81.245973,865.00394 85.48,843.668 l 83.14321,-418.9719 c 4.23403,-21.33594 17.578,-39.332 39.327,-39.332 h 763.146 c 21.74899,0 42.02759,17.74832 39.32699,39.332 L 958,843.668 C 955.31179,865.15248 940.323,883 918.673,883 Z"
       fill="#ffca28"
       p-id="10761"
       id="path3"
       sodipodi:nodetypes="sssssssss" /></g><g
     id="g6"
     transform="translate(0.854982,0.18250738)"
     inkscape:label="close"
     style="display:none"><path
       d="M 918.673,883 H 104.327 C 82.578,883 65,867.368 65,848.027 V 276.973 C 65,257.632 82.578,242 104.327,242 H 918.673 C 940.422,242 958,257.632 958,276.973 V 848.027 C 958,867.28 940.323,883 918.673,883 Z"
       fill="#ffe9b4"
       p-id="10759"
       id="path1-7"
       style="fill:#ffb02c;fill-opacity:1" /><path
       d="M 512,411 H 65 V 210.37 C 65,188.597 82.598,171 104.371,171 h 305.92 c 17.4,0 32.71,11.334 37.681,28.036 z"
       fill="#ffb02c"
       p-id="10760"
       id="path2-6"
       style="display:inline" /><path
       d="M 918.673,883 H 104.327 C 82.578,883 65,865.42 65,843.668 V 335.332 C 65,313.58 82.578,296 104.327,296 H 918.673 C 940.422,296 958,313.58 958,335.332 V 843.668 C 958,865.32 940.323,883 918.673,883 Z"
       fill="#ffca28"
       p-id="10761"
       id="path3-1"
       style="fill:#ffb02c;fill-opacity:1" /></g><g
     id="g7"
     inkscape:label="res"
     style="display:inline"
     transform="matrix(1.4032569,0,0,1.4032569,-287.11466,-361.54898)"><g
       id="g4"
       transform="matrix(0.38604859,0,0,0.38818409,550.13231,564.16801)"
       style="display:none"
       inkscape:label="qt"
       sodipodi:insensitive="true"><path
         d="M 787.392,816.42667 H 85.610667 V 277.97333 A 170.66667,170.66667 0 0 1 256.27733,107.30667 h 531.136 v 709.12 z"
         fill="#5aa72d"
         p-id="4303"
         id="path1-4" /><path
         d="m 533.93067,960.34133 c 0,0 -120.128,-245.90933 131.712,-348.75733 C 759.488,579.904 908.096,499.456 980.288,414.93333 c 0,0 -27.52,91.904 -52.544,220.928 -25.024,129.024 -36.88533,343.63734 -393.81333,324.48 z"
         fill="#e3e3e3"
         p-id="4304"
         id="path2-8" /><path
         d="m 540.39467,951.424 c 76.39466,-65.152 413.54666,-491.81867 413.54666,-491.81867 0,0 -263.46666,389.632 -385.96266,491.81867 z"
         fill="#959595"
         p-id="4305"
         id="path3-8" /><path
         d="m 449.6,685.696 c -45.71733,0 -92.90667,-17.024 -113.25867,-72.96 C 293.93067,613.03467 259.072,596.71467 231.72267,563.79733 204.39467,530.88 190.72,489.472 190.72,439.57333 c 0,-55.65866 13.84533,-99.776 41.51467,-132.416 27.66933,-32.64 65.51466,-48.93866 113.51466,-48.93866 43.22134,0 78.29334,16.02133 105.216,48.04266 26.92267,32.02134 40.384,73.728 40.384,125.09867 0,45.61067 -9.472,83.92533 -28.43733,114.92267 -16.08533,26.32533 -45.54667,47.72266 -73.13067,58.176 0,0 0,36.05333 60.01067,36.05333 z M 268.84267,436.05333 c 0,44.07467 6.57066,79.424 19.73333,106.00534 13.14133,26.58133 30.31467,39.89333 51.47733,39.89333 22.72,0 40.576,-12.736 53.54667,-38.22933 12.97067,-25.49334 19.456,-61.14134 19.456,-106.944 0,-47.06134 -6.336,-83.37067 -19.02933,-108.94934 -12.69334,-25.57866 -30.08,-38.35733 -52.16,-38.35733 -21.71734,0 -39.31734,13.48267 -52.77867,40.46933 -13.46133,26.98667 -20.24533,62.35734 -20.24533,106.112 z M 661.33333,604.672 c -21.33333,5.12 -23.744,5.03467 -39.70133,5.03467 -43.52,0 -66.96533,-24.10667 -66.96533,-72.32 V 405.33333 H 512 v -42.66666 h 42.66667 V 349.76 l 12.82133,-60.608 29.84533,0.0853 v 73.42934 h 64 v 42.66666 h -64 v 124.352 c 0,15.97867 1.984,28.096 8.17067,34.28267 15.08267,15.08267 44.928,6.144 55.82933,2.02667 z"
         fill="#ffffff"
         p-id="4306"
         id="path4" /></g><path
       d="M 917.92462,935.88423 H 851.01973 V 805.0114 q 0,-52.97657 -38.62551,-52.97657 -19.335,0 -31.99509,14.75156 -12.45984,14.72932 -12.45984,38.22501 v 130.87283 h -67.10514 v -340.0869 h 67.10514 v 144.80115 h 0.82324 q 26.38816,-40.09399 71.04334,-40.09399 78.11875,0 78.11875,94.31655 z"
       fill="#0277bd"
       p-id="7702"
       id="path1-2"
       style="display:inline;stroke-width:0.521477"
       inkscape:label="h"
       sodipodi:insensitive="true" /><path
       d="m 709.45103,855.81933 7.65068,45.53089 c -4.85165,2.61243 -12.68894,5.03825 -23.13865,7.27748 -10.63632,2.42582 -23.13865,3.73204 -37.50701,3.73204 -41.23904,-0.74641 -72.21498,-13.06214 -92.9278,-36.574 -20.89943,-23.69846 -31.34914,-53.74138 -31.34914,-90.12877 0.93301,-43.10507 13.43535,-76.13363 37.3204,-99.27228 24.63147,-23.32525 55.2342,-35.26778 92.1814,-35.26778 13.99515,0 26.12428,1.30621 36.20079,3.54544 10.07651,2.23922 17.54059,4.66505 22.39224,7.46408 l -10.82291,46.4639 -19.77982,-6.34447 c -7.46408,-1.86602 -16.04777,-2.79903 -25.93768,-2.79903 -21.64583,-0.1866 -39.55963,6.71768 -53.55478,20.52622 -14.18175,13.62195 -21.45923,34.52138 -22.01904,62.32508 0,25.37788 6.90428,45.15769 20.15302,59.71265 13.24875,14.36835 31.90895,21.83243 55.79401,22.01904 l 24.81806,-2.23923 c 8.02389,-1.49281 14.74156,-3.54544 20.52623,-5.97126 m 9.3301,-92.74121 h 37.3204 v -37.3204 h 37.32041 v 37.3204 h 37.32041 v 37.32041 h -37.32041 v 37.3204 h -37.32041 v -37.3204 h -37.3204 v -37.32041 m 130.62142,0 h 37.3204 v -37.3204 h 37.32039 v 37.3204 h 37.32043 v 37.32041 h -37.32043 v 37.3204 h -37.32039 v -37.3204 h -37.3204 z"
       fill="#0277bd"
       p-id="13904"
       id="path1-3"
       style="display:none;stroke-width:0.437348"
       inkscape:label="cpp"
       sodipodi:insensitive="true" /><path
       d="M 903.05256,678.07095 680.03064,943.85767 a 9.2437879,9.2437879 0 0 1 -4.18352,2.83846 l -67.53953,22.38626 c -6.54725,2.17087 -13.08461,-3.31813 -12.08077,-10.13736 l 10.31538,-70.39778 c 0.24726,-1.7011 0.96429,-3.29835 2.07198,-4.61373 L 831.63608,618.1468 c 3.28846,-3.92143 9.13351,-4.43077 13.05494,-1.14231 l 57.21923,48.01647 c 3.91648,3.28351 4.43077,9.12857 1.14231,13.04999 z m 73.56755,-87.67579 -32.5879,38.8335 c -3.28846,3.92143 -9.13351,4.43077 -13.05494,1.14231 L 873.75806,582.3545 c -3.92145,-3.28846 -4.43079,-9.13351 -1.14231,-13.05494 l 32.5879,-38.8335 c 3.28846,-3.92143 9.13352,-4.43077 13.05494,-1.14231 l 57.21921,48.01647 c 3.92143,3.28846 4.43077,9.13351 1.14231,13.05494 z"
       fill="#961a0a"
       p-id="17158"
       data-spm-anchor-id="a313x.search_index.0.i3.643b3a81dBhZ0Z"
       class="selected"
       id="path1-22"
       style="display:none;stroke-width:0.494505"
       inkscape:label="pen"
       sodipodi:insensitive="true" /><g
       id="g8"
       transform="matrix(0.4728854,0,0,0.4728854,493.73043,474.99698)"
       style="display:none;fill:#b46325;fill-opacity:1;stroke:#b46325;stroke-width:31.3121;stroke-dasharray:none;stroke-opacity:1"
       inkscape:label="res_ico"><path
         d="M 732.86171,957.38481 H 288.37229 c -87.20104,0 -158.1356,-70.92228 -158.1356,-158.11104 V 418.083 c 0,-87.19489 70.93456,-158.1356 158.1356,-158.1356 h 444.48942 c 87.20002,0 158.14788,70.94071 158.14788,158.1356 v 381.19077 c 0,87.18978 -70.94786,158.11104 -158.14788,158.11104 z M 288.37229,335.94119 c -45.29562,0 -82.14181,36.84619 -82.14181,82.14181 v 381.19077 c 0,45.2813 36.84619,82.11623 82.14181,82.11623 h 444.48942 c 45.29563,0 82.15409,-36.83493 82.15409,-82.11623 V 418.083 c 0,-45.29562 -36.85949,-82.14181 -82.15409,-82.14181 z"
         fill="#1a1a1a"
         p-id="18222"
         data-spm-anchor-id="a313x.search_index.0.i11.643b3a81dBhZ0Z"
         class="selected"
         id="path1-1"
         style="fill:#b46325;fill-opacity:1;stroke:#b46325;stroke-width:31.3121;stroke-dasharray:none;stroke-opacity:1" /><path
         d="m 459.94185,329.84945 c -39.692,0 -84.61514,-22.72763 -120.16377,-60.79258 -25.02189,-26.79731 -42.58591,-58.33766 -49.43899,-88.80865 -8.37372,-37.15625 -0.0982,-70.65724 22.68465,-91.925639 15.18893,-14.19428 35.36239,-21.707394 58.29366,-21.707394 39.692,0 84.61616,22.727631 120.15252,60.793593 25.02188,26.79118 42.58489,58.3305 49.44922,88.80252 8.37577,37.14908 0.11154,70.65724 -22.67134,91.92462 -15.20122,14.20553 -35.37365,21.71353 -58.30595,21.71353 z M 371.31842,142.60897 c -3.73507,0 -5.8881,0.75418 -6.43148,1.2556 -0.80432,0.75418 -3.36463,6.58088 -0.42058,19.68534 3.89675,17.25397 15.1388,36.80935 30.84859,53.64376 23.64963,25.32581 49.50039,36.66097 64.62793,36.66097 3.73507,0 5.90038,-0.75418 6.44376,-1.26071 0.80329,-0.7419 3.35133,-6.56861 0.40932,-19.67818 -3.89777,-17.25499 -15.13982,-36.80423 -30.86189,-53.64478 -23.64963,-25.32581 -49.48811,-36.662 -64.61565,-36.662 z"
         fill="#1a1a1a"
         p-id="18223"
         data-spm-anchor-id="a313x.search_index.0.i13.643b3a81dBhZ0Z"
         class="selected"
         id="path2-68"
         style="fill:#b46325;fill-opacity:1;stroke:#b46325;stroke-width:31.3121;stroke-dasharray:none;stroke-opacity:1" /><path
         d="m 561.33001,329.84945 c -0.0133,0 -0.0133,0 -0.0133,0 -22.94457,0 -43.10575,-7.51414 -58.31822,-21.71967 -43.2306,-40.36636 -31.72659,-118.06089 26.76559,-180.72202 35.54761,-38.064942 80.4728,-60.793596 120.17504,-60.793596 22.93127,0 43.10472,7.514137 58.30696,21.725814 43.22855,40.360222 31.72454,118.055762 -26.76662,180.715872 -35.54659,38.06597 -80.45847,60.7936 -120.14945,60.7936 z m 88.61013,-187.24048 c -15.12753,0 -40.97727,11.33619 -64.6269,36.66097 -32.75194,35.08508 -35.49747,68.59836 -30.45359,73.31682 0.5577,0.51268 2.72199,1.26788 6.45808,1.26788 0,0 0,0 0.0133,0 15.11526,0 40.95374,-11.33517 64.60235,-36.66097 32.75296,-35.08405 35.49849,-68.59733 30.45257,-73.31682 -0.55873,-0.5137 -2.71074,-1.26788 -6.44581,-1.26788 z"
         fill="#1a1a1a"
         p-id="18224"
         data-spm-anchor-id="a313x.search_index.0.i12.643b3a81dBhZ0Z"
         class="selected"
         id="path3-5"
         style="fill:#b46325;fill-opacity:1;stroke:#b46325;stroke-width:31.3121;stroke-dasharray:none;stroke-opacity:1" /><path
         d="m 510.62928,950.39563 c -20.99006,0 -37.99741,-17.00632 -37.99741,-37.99638 l 1e-5,-602.12974 c 0,-20.98392 17.00734,-37.99741 37.9974,-37.99741 20.99006,0 37.99638,17.01349 37.99638,37.99741 v 602.12974 c 0,20.99006 -17.00632,37.99638 -37.99638,37.99638 z"
         fill="#1a1a1a"
         p-id="18225"
         data-spm-anchor-id="a313x.search_index.0.i10.643b3a81dBhZ0Z"
         class="selected"
         id="path4-7"
         style="fill:#b46325;fill-opacity:1;stroke:#b46325;stroke-width:31.3121;stroke-dasharray:none;stroke-opacity:1" /><path
         d="M 848.4247,646.66607 H 176.47171 c -20.99006,0 -37.9974,-17.00632 -37.9974,-37.99638 0,-20.9921 17.00735,-37.99843 37.9974,-37.99843 H 848.4247 c 20.98801,0 37.99639,17.00633 37.99639,37.99843 -0.001,20.99006 -17.0094,37.99638 -37.99639,37.99638 z"
         fill="#1a1a1a"
         p-id="18226"
         data-spm-anchor-id="a313x.search_index.0.i9.643b3a81dBhZ0Z"
         class="selected"
         id="path5"
         style="fill:#b46325;fill-opacity:1;stroke:#b46325;stroke-width:31.3121;stroke-dasharray:none;stroke-opacity:1" /></g></g></svg>
