<?xml version="1.0" encoding="UTF-8" standalone="no"?>
<svg
   viewBox="0 0 1024 1024"
   version="1.1"
   id="svg1"
   sodipodi:docname="qtide.svg"
   inkscape:version="1.4.4 (dcaf3e7, 2026-05-05)"
   xmlns:inkscape="http://www.inkscape.org/namespaces/inkscape"
   xmlns:sodipodi="http://sodipodi.sourceforge.net/DTD/sodipodi-0.dtd"
   xmlns="http://www.w3.org/2000/svg"
   xmlns:svg="http://www.w3.org/2000/svg">
  <defs
     id="defs1" />
  <sodipodi:namedview
     id="namedview1"
     pagecolor="#ffffff"
     bordercolor="#000000"
     borderopacity="0.25"
     inkscape:showpageshadow="2"
     inkscape:pageopacity="0.0"
     inkscape:pagecheckerboard="0"
     inkscape:deskcolor="#d1d1d1"
     inkscape:zoom="0.57226562"
     inkscape:cx="511.12628"
     inkscape:cy="512"
     inkscape:window-width="1440"
     inkscape:window-height="830"
     inkscape:window-x="1913"
     inkscape:window-y="-6"
     inkscape:window-maximized="1"
     inkscape:current-layer="svg1" />
  <!--
    Qtide Activity Bar Icon
    使用 fill-rule="evenodd" 实现镂空效果:
    - 外轮廓路径 (原 #515151 区域) 被 VS Code 主题色填充
    - 内镂空路径 (原 #ffffff 区域) 保持透明，露出侧边栏背景色
  -->
  <path
     fill-rule="evenodd"
     id="path21"
     style="display:inline"
     d="M 256.27734 107.30664 C 162.02133 107.30719 85.611869 183.71665 85.611328 277.97266 L 85.611328 816.42773 L 504.0293 815.08398 C 492.34343 901.58416 530.4375 979.56445 530.4375 979.56445 C 887.36553 998.72155 899.226 784.10798 924.25 655.08398 C 949.274 526.05998 976.79297 434.15625 976.79297 434.15625 C 932.3965 486.13601 859.0991 536.57374 787.41211 575.07617 L 787.41211 107.30664 L 256.27734 107.30664 z M 345.74805 258.21875 C 388.96905 258.21875 424.04184 274.23972 450.96484 306.26172 C 477.88784 338.28272 491.34961 379.98836 491.34961 431.35938 C 491.34961 476.97037 481.87711 515.2852 462.91211 546.2832 C 446.82711 572.6082 417.36525 594.00598 389.78125 604.45898 C 389.78125 604.45898 389.78197 640.51172 449.79297 640.51172 L 449.59961 685.69531 C 403.88261 685.69531 356.6938 668.67233 336.3418 612.73633 C 293.9308 613.03533 259.07266 596.71488 231.72266 563.79688 C 204.39466 530.87986 190.71875 489.47127 190.71875 439.57227 C 190.71875 383.91327 204.56435 339.79625 232.23438 307.15625 C 259.90438 274.51625 297.74805 258.21875 345.74805 258.21875 z M 567.48828 289.15039 L 597.33203 289.23633 L 597.33203 362.66797 L 661.33203 362.66797 L 661.33203 405.33398 L 597.33203 405.33398 L 597.33203 529.68555 C 597.33203 545.66455 599.31691 557.78175 605.50391 563.96875 C 620.58691 579.05175 650.43103 570.11309 661.33203 565.99609 L 661.33203 604.67188 C 639.99903 609.79188 637.58981 609.70703 621.63281 609.70703 C 578.11281 609.70703 554.66797 585.59972 554.66797 537.38672 L 554.66797 405.33203 L 512 405.33203 L 512 362.66602 L 554.66797 362.66602 L 554.66797 349.75977 L 567.48828 289.15039 z M 341.86719 289.47266 C 320.15019 289.47266 302.54989 302.95541 289.08789 329.94141 C 275.62589 356.92741 268.84375 392.29773 268.84375 436.05273 C 268.84375 480.12773 275.41417 515.47759 288.57617 542.05859 C 301.71717 568.63959 318.89073 581.95117 340.05273 581.95117 C 362.77273 581.95117 380.62861 569.21566 393.59961 543.72266 C 406.57061 518.22966 413.05664 482.58034 413.05664 436.77734 C 413.05664 389.71634 406.72034 353.40615 394.02734 327.82812 C 381.33434 302.24912 363.94719 289.47266 341.86719 289.47266 z M 950.44727 478.82812 C 950.44727 478.82812 686.98037 868.45948 564.48438 970.64648 L 536.90039 970.64648 C 613.29539 905.49448 950.44727 478.82812 950.44727 478.82812 z " />
</svg>
